<svg xmlns="http://www.w3.org/2000/svg" viewBox="0 0 410.79 261.53" width="250">
    <defs>
        <style>
            .a {
                isolation: isolate;
                font-size: 2rem;
                text-align: center;
                fill: #7e7e84;
                font-family: Roboto-Regular, Roboto, helvetica;
            }

            .b {
                fill: #f2f3fa;
            }

            .c {
                fill: #fff;
            }

            .d {
                fill: #5bc9f3;
            }

            .e {
                fill: #4f4f51;
            }

            .f {
                fill: #5ca5d9;
            }

            .g {
                fill: #e07a5f;
            }

            .h {
                fill: none;
                stroke: #4e4e51;
                stroke-linecap: round;
                stroke-linejoin: round;
                stroke-width: 3px;
            }

            .i {
                fill: #ceecf4;
            }

            @keyframes bounce {
                0% {
                    transform: translateY(0);
                    animation-timing-function: ease-out;
                }

                50% {
                    transform: translateY(-2.5%);
                    animation-timing-function: ease-in;
                }

                100% {
                    transform: translateY(0);
                    animation-timing-function: ease-out;
                }
            }

            @keyframes squish {
                0% {
                    transform: scale(1.03);
                    animation-timing-function: ease-out;
                }

                50% {
                    transform: scale(1);
                    animation-timing-function: ease-in;
                }

                100% {
                    transform: scale(1.03);
                    animation-timing-function: ease-out;
                }
            }

            @keyframes flyby {
                0% {
                    transform: translateX(100%);
                }

                100% {
                    transform: translateX(-100%);
                }
            }

            @keyframes flybyCloud2 {
                0% {
                    transform: translateX(100%) translateY(20%);
                }

                100% {
                    transform: translateX(-100%) translateY(20%);
                }
            }

            .forklift-body {
                animation-name: bounce;
                animation-duration: .7s;
                animation-iteration-count: infinite;
                animation-timing-function: linear;
                transform-origin: bottom;
                position: relative;
                z-index: 50;
            }

            .wheel {
                animation-name: squish;
                animation-duration: .7s;
                animation-iteration-count: infinite;
                animation-timing-function: linear;
                transform-origin: center;
                transform-box: fill-box;
            }

            .line,
            .cloud {
                animation-name: flyby;
                animation-duration: 3s;
                animation-iteration-count: infinite;
                animation-timing-function: linear;
                transform-origin: left;
                position: relative;
                z-index: 1;
            }

            .line-1 {
                animation-delay: .5s;
                animation-duration: 3s;
                transform: translateX(-160%);
            }

            .line-2 {
                animation-delay: 1s;
                animation-duration: 3.5s;
                transform: translateY(-40%) translateX(-100%);
            }

            .line-3 {
                animation-duration: 2.5s;
                transform: translateX(-100%) translateY(-20%);
            }

            .cloud-1 {
                animation-duration: 3s;
                transform: translateX(-100%);
            }

            .cloud-3 {
                animation-delay: 3.2s;
                animation-duration: 4s;
                animation-name: flybyCloud2;
                transform: translateX(-100%) translateY(20%);
            }

            .cloud-4 {
                animation-delay: 2.5s;
                animation-duration: 3s;
                transform: translateX(-100%) translateY(30%);
            }
        </style>
    </defs>
    <text class="a" transform="translate(133.19 250.98)">Loading...</text>
    <path class="i cloud cloud-1"
        d="M383.07,19.5a11,11,0,0,0-4.73,1.06,11.48,11.48,0,0,0-15.1-6h0c-2.23-4.07-7.35-6.91-13.32-6.91-6.41,0-11.84,3.28-13.76,7.84a11.13,11.13,0,0,0-16.42,12.14c-1.11.78-2.22,1.6-3.34,2.48H394.2A11.14,11.14,0,0,0,383.07,19.5Z"
        transform="translate(-10.01 -7.65)" />
    <path class="i cloud cloud-3"
        d="M76.65,67.18a9.34,9.34,0,0,0-3.92.87,9.52,9.52,0,0,0-12.5-5h0c-1.85-3.37-6.09-5.72-11-5.72-5.32,0-9.81,2.72-11.4,6.5a9.23,9.23,0,0,0-13.61,10c-.92.65-1.84,1.33-2.77,2H85.86A9.21,9.21,0,0,0,76.65,67.18Z"
        transform="translate(-10.01 -7.65)" />
    <path class="i cloud cloud-4"
        d="M76.65,67.18a9.34,9.34,0,0,0-3.92.87,9.52,9.52,0,0,0-12.5-5h0c-1.85-3.37-6.09-5.72-11-5.72-5.32,0-9.81,2.72-11.4,6.5a9.23,9.23,0,0,0-13.61,10c-.92.65-1.84,1.33-2.77,2H85.86A9.21,9.21,0,0,0,76.65,67.18Z"
        transform="translate(-10.01 -7.65)" />
    <g class="forklift">
        <g class="line line-1">
            <line class="h" x1="82.53" y1="4.55" x2="82.53" y2="17.9" />
            <line class="h" x1="89.21" y1="11.23" x2="75.85" y2="11.23" />
        </g>
        <g class="line line-2">
            <line class="h" x1="377.5" y1="130.01" x2="377.5" y2="143.36" />
            <line class="h" x1="384.18" y1="136.69" x2="370.83" y2="136.69" />
        </g>
        <g class="line line-2">
            <line class="h" x1="37.45" y1="141.73" x2="37.45" y2="155.08" />
            <line class="h" x1="44.13" y1="148.41" x2="30.78" y2="148.41" />
        </g>
        <g class="forklift-body">
            <polygon class="b"
                points="239.99 115.04 220.65 63.71 137.04 64.91 138.32 129.16 182.3 131.62 188.9 148.41 220.37 148.41 232.26 134.97 244.23 129.86 239.99 115.04" />
            <path class="c"
                d="M136.22,99.75l-18,9.09.33,65.39,2,2.57H275.9l1.59-3.87v-24.8s-7-6.51-12.67-7.92-23.57-1.23-29.56,1.23-14.77,14.25-14.77,14.25l-31.58.6L182.31,139s.53-13.9-15.13-13.9-17.07-.88-17.07-.88l-1.23-18.3a14,14,0,0,0-12.66-6.15Z"
                transform="translate(-10.01 -7.65)" />
            <path class="d"
                d="M147.05,101.53v37.54h45.26s2.6-11-10.39-13.48-21.81-1.39-21.81-1.39l-1.23-18.3S151.33,95.55,147.05,101.53Z"
                transform="translate(-10.01 -7.65)" />
            <rect class="e" x="180.39" y="106.42" width="23.94" height="5.57"
                transform="translate(-30.89 160.35) rotate(-45)" />
            <rect class="e" x="193.55" y="107.55" width="5.57" height="11.27"
                transform="translate(-32.54 164.33) rotate(-45)" />
            <path class="e"
                d="M211.32,144.34,193.68,123.5a2.79,2.79,0,0,1,.12-3.73s1-1,2.32-2.36L200,113.5c1.44-1.42,2.7-2.49,2.76-2.54a2.79,2.79,0,0,1,3.92.32l8.86,10.42-4.24,3.61-7-8.23-.36.36L200,121.36l-.48.48,16,18.9Z"
                transform="translate(-10.01 -7.65)" />
            <path class="f"
                d="M255.45,138.34c19.37,1.87,26.84,4.33,29.36,12.81s2.68,21.78,2.68,21.78l-159,1.3-.33-65.39,18-9.09,2.11,37.06,41.95,1.33,8.63,18.15,31.47-.23H213.45V117a3.42,3.42,0,0,1,3.43-3.41h0l33.12,9.1,5.46,15.65"
                transform="translate(-10.01 -7.65)" />
            <path class="e"
                d="M230.38,158.84H213.45a2.77,2.77,0,0,1-2.79-2.77h0V117a6.22,6.22,0,0,1,6.22-6.2,3.07,3.07,0,0,1,.74.1l33.11,9.1a2.77,2.77,0,0,1,1.9,1.77l5.45,15.65a2.79,2.79,0,0,1-5.26,1.84l-5-14.28-31.2-8.59a.65.65,0,0,0-.42.59v36.29h14.15a2.79,2.79,0,0,1,.33,5.57h-.3Z"
                transform="translate(-10.01 -7.65)" />
            <rect class="e" x="169.75" y="163.56" width="59.65" height="5.57" />
            <path class="e"
                d="M287.6,176.78h-6.41v-5.57h3.62V151.15c0-8.09-16.81-10.23-25.7-10.23A29.19,29.19,0,0,0,233,156.78a2.77,2.77,0,0,1-2.64,2.06H198.91a2.76,2.76,0,0,1-2.65-1.92l-5.22-16H147a2.77,2.77,0,0,1-2.79-2.77v0c0-11.34.1-27.25.07-34.82L131,110.2v61h6.72v5.57h-9.18a3.1,3.1,0,0,1-3.12-3.08h0V108.61a3.07,3.07,0,0,1,2.15-2.91l18.11-9.42a2.79,2.79,0,0,1,3.26.5c1,1,1,1,.83,38.57h43.29a2.82,2.82,0,0,1,2.65,1.92l5.22,16h27.65a34.74,34.74,0,0,1,30.53-17.92c15.12,0,31.28,4.15,31.28,15.8V174A2.79,2.79,0,0,1,287.6,176.78Z"
                transform="translate(-10.01 -7.65)" />
            <path class="f" d="M217.75,60.62h-70.7V72.56h85.14S229,60.62,217.75,60.62Z"
                transform="translate(-10.01 -7.65)" />
            <path class="e"
                d="M232.19,75.35H147.05a2.77,2.77,0,0,1-2.78-2.78h0V60.62A2.77,2.77,0,0,1,147,57.83h70.71c10.57,0,15.83,9.17,17.13,14a2.78,2.78,0,0,1-2.69,3.51Zm-82.35-5.57H228c-1.65-2.85-4.78-6.38-10.22-6.38H149.84Z"
                transform="translate(-10.01 -7.65)" />
            <rect class="e" x="250.81" y="44.22" width="5.57" height="87.38" />
            <rect class="e" x="253.59" y="113.91" width="76.45" height="5.57" />
            <rect class="e" x="134.26" y="58.94" width="5.57" height="70.83" />
            <rect class="e" x="240" y="71.57" width="5.55" height="69.32"
                transform="translate(-31.49 78.76) rotate(-19.34)" />

            <path class="e"
                d="M195.85,138.14h-5.57A10.16,10.16,0,0,0,180.15,128H160a2.77,2.77,0,0,1-2.78-2.78h0V111.66a10.14,10.14,0,0,0-10.14-10.13V96a15.73,15.73,0,0,1,15.71,15.71v10.77h17.39A15.72,15.72,0,0,1,195.85,138.14Z"
                transform="translate(-10.01 -7.65)" />
            <rect class="g" x="264.56" y="62.1" width="54.59" height="54.6" />
            <path class="e" d="M332,127.13H271.78V67H332Zm-54.59-5.57h49v-49h-49Z"
                transform="translate(-10.01 -7.65)" />
            <rect class="e" x="276.9" y="93.57" width="5.57" height="5.57" />
            <rect class="e" x="289.03" y="93.57" width="5.57" height="5.57" />
            <rect class="e" x="301.16" y="93.57" width="5.57" height="5.57" />
            <rect class="e" x="289.12" y="60.94" width="5.57" height="16.71" />
        </g>
        <g class="wheel">
            <path class="c" d="M144,174a14.49,14.49,0,1,1,14.49,14.49A14.49,14.49,0,0,1,144,174Z"
                transform="translate(-10.01 -7.65)" />
            <path class="e"
                d="M158.52,191.27A17.28,17.28,0,1,1,175.8,174h0A17.3,17.3,0,0,1,158.52,191.27Zm0-29A11.71,11.71,0,1,0,170.23,174a11.71,11.71,0,0,0-11.71-11.73Z"
                transform="translate(-10.01 -7.65)" />
            <circle class="e" cx="148.51" cy="166.34" r="2.79" />
        </g>
        <g class="wheel">
            <path class="c" d="M245.51,174A14.5,14.5,0,1,1,260,188.48h0A14.5,14.5,0,0,1,245.51,174Z"
                transform="translate(-10.01 -7.65)" />
            <path class="e"
                d="M260,191.27A17.28,17.28,0,1,1,277.28,174h0A17.3,17.3,0,0,1,260,191.27Zm0-29A11.71,11.71,0,1,0,271.71,174,11.71,11.71,0,0,0,260,162.27Z"
                transform="translate(-10.01 -7.65)" />
            <circle class="e" cx="249.99" cy="166.34" r="2.79" />
        </g>
    </g>
    <line class="h ground" x1="409.29" y1="184.76" x2="1.5" y2="184.76" />
</svg>